<svg width="612" height="612" viewBox="0 0 612 612" fill="none" xmlns="http://www.w3.org/2000/svg">
<g clip-path="url(#clip0_32_15)">
<path d="M587.572 186.881C555.306 111.656 500.476 56.947 424.623 24.596C386.711 8.42697 347.328 0.167969 305.832 0.167969C264.344 0.167969 224.918 8.34897 187.048 24.596C111.824 56.861 56.415 111.535 24.092 186.881C7.895 224.629 0 264.176 0 305.664C0 347.16 7.895 387.035 24.092 424.791C56.415 500.137 111.823 555.139 187.048 587.412C224.918 603.659 264.343 611.832 305.832 611.832C347.328 611.832 386.711 603.573 424.623 587.412C500.477 555.06 555.307 500.009 587.572 424.791C603.819 386.914 612 347.16 612 305.664C612 264.176 603.819 224.757 587.572 186.881ZM204.109 57.054C177.675 90.512 158.273 133.007 145.888 184.539H65.917C95.362 127.318 144.889 81.475 204.109 57.054ZM37.141 305.664C37.141 276.554 41.824 248.45 50.861 221.345H138.528C134.18 249.784 132.168 277.896 132.168 305.664C132.168 333.104 134.181 360.881 138.528 389.32H50.19C41.489 362.215 37.141 334.111 37.141 305.664ZM65.917 426.126H145.889C158.274 478.657 177.677 521.823 204.11 554.953C143.882 529.854 94.356 484.012 65.917 426.126ZM287.094 571.679C265.343 565.325 244.934 549.264 226.532 523.166C208.129 497.061 194.074 464.609 184.372 426.126H287.094V571.679ZM287.094 389.32H176.005C171.651 359.538 169.309 331.762 169.309 305.664C169.309 277.56 171.65 249.449 176.676 221.345H287.093V389.32H287.094ZM287.094 184.54H184.372C194.744 146.392 208.878 114.326 227.203 88.506C245.684 62.458 265.344 46.346 287.095 40.321V184.54H287.094ZM546.084 184.54H466.111C453.733 133.007 434.324 90.512 407.89 57.055C467.118 81.475 516.638 127.318 546.084 184.54ZM324.906 40.321C346.657 46.346 366.316 62.458 384.798 88.506C403.129 114.326 417.256 146.392 427.628 184.54H324.906V40.321ZM324.906 221.345H435.323C440.348 249.449 442.69 277.56 442.69 305.664C442.69 331.763 440.348 359.538 435.994 389.32H324.906V221.345ZM324.906 571.679V426.126H427.628C417.592 464.609 403.351 496.932 385.133 523.166C366.873 549.464 346.992 565.661 324.906 571.679ZM407.891 554.953C434.325 521.823 453.734 478.657 466.112 426.126H546.085C517.645 484.012 468.117 529.854 407.891 554.953ZM561.81 389.32H473.472C477.826 360.88 479.832 333.104 479.832 305.664C479.832 277.896 477.826 249.785 473.472 221.345H561.139C570.176 248.449 574.859 276.553 574.859 305.664C574.858 334.111 570.512 362.215 561.81 389.32Z" fill="url(#paint0_linear_32_15)"/>
</g>
<defs>
<linearGradient id="paint0_linear_32_15" x1="306" y1="0.167969" x2="306" y2="611.832" gradientUnits="userSpaceOnUse">
<stop stop-color="#04002D" stop-opacity="0.64"/>
<stop offset="1" stop-color="#0A007C"/>
</linearGradient>
<clipPath id="clip0_32_15">
<rect width="612" height="612" fill="white"/>
</clipPath>
</defs>
</svg>
