<svg width="482" height="346" viewBox="0 0 482 346" fill="none" xmlns="http://www.w3.org/2000/svg">
<g clip-path="url(#clip0_32_9)">
<path d="M390.339 122.499C383.741 53.8556 326.515 0 256.063 0C201.549 0 154.867 32.3134 133.357 78.6774C126.879 76.6315 120.131 75.2174 112.976 75.2174C75.5432 75.2174 45.1903 105.545 45.1903 142.913C45.1903 150.345 46.6816 157.37 48.8959 164.034C19.7783 180.988 0 212.128 0 248.202C0 302.208 43.8346 345.985 97.9124 345.985L369.039 346C431.447 346 482 295.484 482 233.159C482 178.145 442.534 132.458 390.339 122.499ZM163.303 235.385L135.285 207.6C131.248 201.011 134.547 195.64 142.591 195.64H154.852C155.922 145.591 196.337 105.304 246.167 105.304C271.428 105.304 294.264 115.654 310.804 132.368L290.333 152.165C279.08 140.807 263.339 133.857 246.167 133.782C211.596 133.616 184.497 161.793 183.548 195.64H198.657C206.67 195.64 209.984 201.011 205.962 207.6L177.929 235.385C173.907 241.974 167.325 241.974 163.303 235.385ZM346.444 195.475H334.152C333.083 245.54 292.532 285.826 242.582 285.826C217.26 285.826 194.364 275.476 177.764 258.763L198.295 238.981C209.578 250.339 225.379 257.274 242.567 257.349C277.243 257.544 304.387 229.338 305.351 195.49H290.227C282.153 195.49 278.854 190.119 282.891 183.53L310.985 155.745C315.037 149.171 321.62 149.171 325.657 155.745L353.75 183.53C357.802 190.104 354.503 195.475 346.444 195.475Z" fill="url(#paint0_linear_32_9)"/>
</g>
<defs>
<linearGradient id="paint0_linear_32_9" x1="241" y1="0" x2="241" y2="346" gradientUnits="userSpaceOnUse">
<stop stop-color="#04002D" stop-opacity="0.64"/>
<stop offset="1" stop-color="#0B0084"/>
</linearGradient>
<clipPath id="clip0_32_9">
<rect width="482" height="346" fill="white"/>
</clipPath>
</defs>
</svg>
