<svg width="1585" height="1585" viewBox="0 0 1585 1585" fill="none" xmlns="http://www.w3.org/2000/svg">
<g clip-path="url(#clip0_30_14)">
<path d="M1102.14 407.045L1083.96 429.994C1007.69 372.651 915.901 339.629 820.579 335.237C725.257 330.845 630.823 355.285 549.601 405.371L700.266 215.225C713.144 220.936 727.664 221.754 741.102 217.526C754.541 213.297 765.975 204.313 773.264 192.257C780.552 180.2 783.193 165.9 780.691 152.036C778.19 138.172 770.718 125.696 759.676 116.947C748.635 108.197 734.781 103.776 720.712 104.51C706.643 105.245 693.325 111.085 683.254 120.936C673.184 130.788 667.052 143.974 666.007 158.023C664.963 172.072 669.079 186.02 677.583 197.252L460.626 471.059L437.943 453.086C434.935 450.702 431.104 449.612 427.292 450.053C423.479 450.495 419.999 452.433 417.615 455.441L363.695 523.49C361.312 526.498 360.221 530.329 360.662 534.142C361.104 537.954 363.042 541.435 366.05 543.818L388.733 561.792L171.777 835.599C158.898 829.888 144.379 829.07 130.941 833.299C117.502 837.527 106.067 846.511 98.779 858.567C91.4908 870.624 88.8499 884.924 91.3512 898.788C93.8526 912.652 101.324 925.128 112.366 933.877C123.408 942.627 137.262 947.048 151.331 946.314C165.399 945.58 178.717 939.739 188.788 929.888C198.859 920.036 204.991 906.85 206.035 892.801C207.079 878.752 202.964 864.804 194.46 853.572L345.123 663.429C314.933 753.951 312.729 851.471 338.797 943.265C364.866 1035.06 417.996 1116.86 491.257 1178.01L473.075 1200.95C470.692 1203.96 469.601 1207.79 470.043 1211.6C470.484 1215.42 472.422 1218.9 475.43 1221.28L543.479 1275.2C546.487 1277.58 550.319 1278.68 554.131 1278.23C557.944 1277.79 561.424 1275.85 563.808 1272.85L617.728 1204.8C620.111 1201.79 621.202 1197.96 620.76 1194.15C620.319 1190.33 618.381 1186.85 615.373 1184.47L547.324 1130.55C544.316 1128.17 540.484 1127.07 536.672 1127.52C532.86 1127.96 529.379 1129.9 526.995 1132.9L509.232 1155.32C427.532 1086.88 373.049 991.439 355.652 886.29C338.256 781.14 359.097 673.237 414.4 582.129L434.099 597.738C437.107 600.122 440.939 601.213 444.751 600.771C448.563 600.329 452.044 598.391 454.427 595.383L508.348 527.334C510.731 524.326 511.822 520.495 511.38 516.682C510.939 512.87 509.001 509.389 505.993 507.006L486.294 491.397C562.345 416.73 662.626 371.772 768.968 364.669C875.31 357.566 980.679 388.787 1065.99 452.677L1048.22 475.094C1045.84 478.102 1044.75 481.934 1045.19 485.746C1045.63 489.558 1047.57 493.039 1050.58 495.423L1118.63 549.343C1121.63 551.726 1125.47 552.817 1129.28 552.375C1133.09 551.934 1136.57 549.996 1138.96 546.988L1192.88 478.939C1195.26 475.931 1196.35 472.099 1195.91 468.287C1195.47 464.474 1193.53 460.994 1190.52 458.61L1122.47 404.69C1119.46 402.307 1115.63 401.216 1111.82 401.658C1108.01 402.099 1104.53 404.037 1102.14 407.045Z" fill="url(#paint0_linear_30_14)"/>
<path d="M559.034 569.444C555.843 568.775 552.52 569.204 549.603 570.66C546.686 572.116 544.346 574.515 542.963 577.467C541.58 580.419 541.234 583.752 541.981 586.925C542.729 590.098 544.526 592.926 547.082 594.95L914.661 886.209C916.857 887.948 919.51 889.012 922.299 889.273C925.087 889.534 927.892 888.98 930.372 887.678C942.107 881.408 955.644 879.373 968.704 881.915C981.763 884.457 993.549 891.42 1002.08 901.633C1010.6 911.846 1015.35 924.685 1015.52 937.989C1015.69 951.293 1011.27 964.249 1003.01 974.677C994.749 985.105 983.146 992.368 970.155 995.244C957.165 998.119 943.581 996.432 931.689 990.465C919.797 984.499 910.323 974.617 904.863 962.484C899.403 950.352 898.289 936.708 901.71 923.85C902.41 921.139 902.308 918.282 901.417 915.626C900.526 912.971 898.883 910.632 896.688 908.892L529.109 617.634C526.554 615.608 523.39 614.505 520.13 614.503C516.869 614.5 513.704 615.599 511.146 617.621C508.588 619.642 506.788 622.468 506.038 625.641C505.287 628.814 505.63 632.147 507.01 635.1L767.242 1192.08C768.194 1194.12 769.606 1195.9 771.367 1197.3C773.128 1198.7 775.189 1199.66 777.388 1200.12L1007.83 1248.38L1270.57 916.793L1170.91 703.488C1169.95 701.453 1168.54 699.667 1166.78 698.272C1165.02 696.876 1162.96 695.91 1160.76 695.449L559.034 569.444Z" fill="url(#paint1_linear_30_14)"/>
<path d="M1314.65 907.753L1009.11 1293.37C1004.14 1299.63 1005.2 1308.73 1011.46 1313.69L1079.51 1367.61C1085.77 1372.58 1094.88 1371.52 1099.84 1365.26L1405.39 979.646C1410.35 973.383 1409.29 964.281 1403.03 959.318L1334.98 905.398C1328.72 900.435 1319.62 901.489 1314.65 907.753Z" fill="url(#paint2_linear_30_14)"/>
<path d="M1219.89 1423.46C1222.89 1425.84 1226.73 1426.93 1230.54 1426.49C1234.35 1426.05 1237.83 1424.11 1240.21 1421.1L1491.84 1103.54C1494.22 1100.53 1495.32 1096.7 1494.87 1092.89C1494.43 1089.07 1492.49 1085.59 1489.49 1083.21L1410.1 1020.3L1140.5 1360.55L1219.89 1423.46Z" fill="url(#paint3_linear_30_14)"/>
</g>
<defs>
<linearGradient id="paint0_linear_30_14" x1="390.655" y1="489.465" x2="878.341" y2="875.892" gradientUnits="userSpaceOnUse">
<stop stop-color="#04002D" stop-opacity="0.64"/>
<stop offset="1" stop-color="#0B0084"/>
</linearGradient>
<linearGradient id="paint1_linear_30_14" x1="526.751" y1="597.303" x2="1139.2" y2="1082.59" gradientUnits="userSpaceOnUse">
<stop stop-color="#04002D" stop-opacity="0.64"/>
<stop offset="1" stop-color="#0B0084"/>
</linearGradient>
<linearGradient id="paint2_linear_30_14" x1="1161.88" y1="1100.56" x2="1252.61" y2="1172.45" gradientUnits="userSpaceOnUse">
<stop stop-color="#04002D" stop-opacity="0.64"/>
<stop offset="1" stop-color="#0B0084"/>
</linearGradient>
<linearGradient id="paint3_linear_30_14" x1="1275.3" y1="1190.43" x2="1366.03" y2="1262.32" gradientUnits="userSpaceOnUse">
<stop stop-color="#04002D" stop-opacity="0.64"/>
<stop offset="1" stop-color="#0B0084"/>
</linearGradient>
<clipPath id="clip0_30_14">
<rect width="1585" height="1585" fill="white"/>
</clipPath>
</defs>
</svg>
