<svg width="1765" height="1765" viewBox="0 0 1765 1765" fill="none" xmlns="http://www.w3.org/2000/svg">
<path d="M1638.14 882.5C1638.14 777.703 1516.8 689.453 1323.75 634.297C1373.39 441.25 1356.84 292.328 1268.59 237.172C1246.53 226.141 1224.47 220.625 1196.89 220.625C1114.16 220.625 1003.84 281.297 893.531 386.094C783.219 281.297 678.422 220.625 590.172 220.625C562.594 220.625 540.531 226.141 518.469 237.172C435.734 292.328 419.187 441.25 463.312 634.297C275.781 689.453 148.922 783.219 148.922 882.5C148.922 987.297 270.266 1075.55 463.312 1130.7C419.187 1323.75 435.734 1478.19 523.984 1527.83C546.047 1538.86 568.109 1544.38 595.688 1544.38C678.422 1544.38 788.734 1483.7 899.047 1378.91C1009.36 1483.7 1114.16 1544.38 1202.41 1544.38C1229.98 1544.38 1252.05 1538.86 1274.11 1527.83C1362.36 1478.19 1378.91 1323.75 1334.78 1130.7C1516.8 1075.55 1638.14 981.781 1638.14 882.5ZM1196.89 292.328C1213.44 292.328 1224.47 292.328 1229.98 303.359C1274.11 325.422 1290.66 413.672 1274.11 529.5C1268.59 557.078 1263.08 590.172 1257.56 617.75C1196.89 601.203 1136.22 595.688 1064.52 584.656C1025.91 529.5 987.297 479.859 943.172 435.734C1042.45 341.969 1136.22 292.328 1196.89 292.328ZM1097.61 998.328C1075.55 1036.94 1053.48 1075.55 1025.91 1108.64C981.781 1114.16 937.656 1114.16 893.531 1114.16C849.406 1114.16 805.281 1114.16 761.156 1108.64C739.094 1075.55 717.031 1036.94 689.453 998.328C667.391 959.719 645.328 921.109 628.781 882.5C645.328 843.891 667.391 805.281 689.453 766.672C711.516 728.062 739.094 689.453 761.156 650.844C805.281 645.328 849.406 645.328 893.531 645.328C937.656 645.328 981.781 645.328 1025.91 650.844C1047.97 683.938 1075.55 722.547 1097.61 766.672C1119.67 805.281 1141.73 843.891 1158.28 882.5C1141.73 921.109 1119.67 959.719 1097.61 998.328ZM1196.89 965.234C1213.44 1003.84 1224.47 1042.45 1235.5 1075.55C1196.89 1086.58 1158.28 1092.09 1119.67 1097.61C1130.7 1075.55 1147.25 1053.48 1158.28 1031.42C1174.83 1014.88 1185.86 987.297 1196.89 965.234ZM893.531 1279.63C865.953 1252.05 838.375 1218.95 816.313 1185.86C843.891 1185.86 871.469 1185.86 893.531 1185.86C921.109 1185.86 948.688 1185.86 970.75 1185.86C948.688 1218.95 921.109 1252.05 893.531 1279.63ZM667.391 1103.12C628.781 1097.61 590.172 1092.09 551.563 1081.06C562.594 1042.45 579.141 1003.84 590.172 970.75C601.203 992.813 612.234 1014.87 628.781 1036.94C645.328 1059 656.359 1081.06 667.391 1103.12ZM590.172 799.766C573.625 761.156 562.594 722.547 546.047 683.937C584.656 672.906 623.266 667.391 667.391 661.875C650.844 683.938 639.813 706 623.266 728.062C617.75 755.641 606.719 777.703 590.172 799.766ZM893.531 485.375C921.109 512.953 943.172 546.047 970.75 573.625C943.172 573.625 921.109 573.625 893.531 573.625C865.953 573.625 843.891 573.625 816.313 573.625C843.891 546.047 871.469 512.953 893.531 485.375ZM1158.28 728.062C1141.73 706 1130.7 683.938 1114.16 661.875C1158.28 667.391 1196.89 672.906 1235.5 683.937C1224.47 722.547 1207.92 761.156 1191.37 799.766C1185.86 777.703 1174.83 755.641 1158.28 728.062ZM518.469 523.984C501.922 408.156 518.469 325.422 562.594 297.844C573.625 292.328 584.656 286.812 595.688 286.812C656.359 286.812 744.609 336.453 843.891 430.219C805.281 474.344 761.156 523.984 722.547 579.141C656.359 584.656 590.172 595.688 529.5 612.234C523.984 584.656 518.469 551.562 518.469 523.984ZM397.125 1031.42C292.328 987.297 220.625 926.625 220.625 882.5C220.625 832.859 286.812 777.703 391.609 733.578C419.187 722.547 446.766 711.516 479.859 706C496.406 766.672 518.469 827.344 551.563 888.016C523.984 948.688 501.922 1009.36 485.375 1064.52C452.281 1053.48 424.703 1042.45 397.125 1031.42ZM557.078 1467.16C512.953 1445.09 496.406 1356.84 512.953 1241.02C518.469 1213.44 523.984 1180.34 529.5 1147.25C590.172 1158.28 650.844 1169.31 717.031 1174.83C755.641 1229.98 799.766 1279.62 838.375 1323.75C739.094 1417.52 650.844 1467.16 590.172 1467.16C579.141 1472.67 568.109 1467.16 557.078 1467.16ZM1274.11 1241.02C1290.66 1356.84 1274.11 1439.58 1229.98 1467.16C1218.95 1472.67 1207.92 1478.19 1196.89 1478.19C1136.22 1478.19 1047.97 1428.55 948.688 1334.78C992.813 1290.66 1031.42 1241.02 1070.03 1185.86C1136.22 1180.34 1202.41 1169.31 1257.56 1158.28C1263.08 1180.34 1268.59 1207.92 1274.11 1241.02ZM1395.45 1031.42C1367.87 1042.45 1340.3 1053.48 1307.2 1059C1290.66 1003.84 1268.59 943.172 1241.02 882.5C1268.59 821.828 1290.66 761.156 1312.72 700.484C1340.3 711.516 1373.39 717.031 1400.97 728.062C1505.77 772.187 1571.95 827.344 1571.95 876.984C1566.44 926.625 1500.25 987.297 1395.45 1031.42Z" fill="url(#paint0_linear_28_6)"/>
<path d="M899.047 1020.39C976.266 1020.39 1036.94 959.719 1036.94 882.5C1036.94 805.281 976.266 744.609 899.047 744.609C821.828 744.609 761.156 805.281 761.156 882.5C761.156 959.719 821.828 1020.39 899.047 1020.39Z" fill="url(#paint1_linear_28_6)"/>
<defs>
<linearGradient id="paint0_linear_28_6" x1="893.531" y1="220.625" x2="893.531" y2="1544.38" gradientUnits="userSpaceOnUse">
<stop stop-color="#04002D" stop-opacity="0.64"/>
<stop offset="1" stop-color="#0B0084"/>
</linearGradient>
<linearGradient id="paint1_linear_28_6" x1="899.047" y1="744.609" x2="899.047" y2="1020.39" gradientUnits="userSpaceOnUse">
<stop stop-color="#04002D" stop-opacity="0.64"/>
<stop offset="1" stop-color="#0B0084"/>
</linearGradient>
</defs>
</svg>
