<svg width="1603" height="2004" viewBox="0 0 1603 2004" fill="none" xmlns="http://www.w3.org/2000/svg">
<g clip-path="url(#clip0_30_9)">
<path d="M460.161 919.769C792.617 844.686 844.113 793.183 919.187 460.686C922.627 445.489 936.152 434.667 951.781 434.667C967.411 434.667 980.936 445.489 984.376 460.686C1059.48 793.183 1110.95 844.686 1443.4 919.769C1458.63 923.243 1469.45 936.736 1469.45 952.368C1469.45 967.999 1458.63 981.492 1443.4 984.966C1110.95 1060.08 1059.48 1111.59 984.376 1444.05C980.936 1459.25 967.411 1470.07 951.781 1470.07C936.152 1470.07 922.627 1459.25 919.187 1444.05C844.08 1111.59 792.617 1060.08 460.161 984.966C444.933 981.492 434.146 967.999 434.146 952.368C434.146 936.736 444.966 923.243 460.161 919.769Z" fill="url(#paint0_linear_30_9)"/>
<path d="M159.599 402.102C336.329 362.189 361.143 337.373 401.051 160.654C404.524 145.423 418.016 134.635 433.645 134.635C449.274 134.635 462.766 145.423 466.239 160.654C506.147 337.373 530.96 362.189 707.658 402.102C722.886 405.576 733.673 419.07 733.673 434.701C733.673 450.332 722.886 463.826 707.658 467.299C530.96 507.212 506.147 532.028 466.239 708.781C462.766 723.978 449.274 734.8 433.645 734.8C418.016 734.8 404.524 723.978 401.051 708.781C361.143 532.028 336.329 507.212 159.599 467.299C144.404 463.826 133.583 450.332 133.583 434.701C133.583 419.07 144.404 405.576 159.599 402.102Z" fill="url(#paint1_linear_30_9)"/>
<path d="M1599.48 1939.84H1600.25C1600.27 1939.74 1600.3 1939.65 1600.34 1939.57C1600.38 1939.49 1600.44 1939.42 1600.51 1939.37C1600.58 1939.31 1600.66 1939.27 1600.75 1939.24C1600.84 1939.21 1600.93 1939.19 1601.04 1939.19C1601.22 1939.19 1601.39 1939.24 1601.53 1939.33C1601.67 1939.43 1601.78 1939.56 1601.85 1939.74C1601.93 1939.92 1601.97 1940.13 1601.97 1940.38C1601.97 1940.64 1601.93 1940.86 1601.85 1941.04C1601.77 1941.21 1601.67 1941.34 1601.53 1941.43C1601.39 1941.52 1601.23 1941.57 1601.04 1941.57C1600.94 1941.57 1600.84 1941.56 1600.76 1941.53C1600.67 1941.5 1600.59 1941.46 1600.52 1941.41C1600.45 1941.36 1600.39 1941.29 1600.35 1941.22C1600.3 1941.14 1600.27 1941.05 1600.25 1940.96L1599.48 1940.96C1599.5 1941.13 1599.55 1941.29 1599.63 1941.44C1599.71 1941.6 1599.81 1941.74 1599.95 1941.86C1600.08 1941.98 1600.24 1942.07 1600.43 1942.15C1600.61 1942.21 1600.82 1942.25 1601.05 1942.25C1601.38 1942.25 1601.67 1942.18 1601.92 1942.03C1602.18 1941.88 1602.38 1941.67 1602.53 1941.39C1602.67 1941.11 1602.75 1940.78 1602.75 1940.38C1602.75 1939.99 1602.67 1939.65 1602.52 1939.37C1602.37 1939.09 1602.17 1938.88 1601.92 1938.73C1601.66 1938.59 1601.37 1938.51 1601.05 1938.51C1600.84 1938.51 1600.65 1938.54 1600.47 1938.6C1600.29 1938.66 1600.13 1938.75 1599.99 1938.86C1599.85 1938.97 1599.73 1939.11 1599.65 1939.28C1599.56 1939.44 1599.5 1939.63 1599.48 1939.84ZM1598.94 1942.2V1939.47H1598.21V1939.95H1598.18C1598.13 1939.78 1598.04 1939.65 1597.93 1939.57C1597.81 1939.48 1597.67 1939.43 1597.52 1939.43C1597.48 1939.43 1597.44 1939.44 1597.4 1939.44C1597.36 1939.45 1597.32 1939.45 1597.28 1939.46V1940.13C1597.32 1940.12 1597.37 1940.11 1597.43 1940.1C1597.49 1940.09 1597.55 1940.09 1597.6 1940.09C1597.71 1940.09 1597.81 1940.12 1597.9 1940.16C1597.99 1940.21 1598.06 1940.28 1598.11 1940.36C1598.16 1940.45 1598.18 1940.55 1598.18 1940.66V1942.2H1598.94ZM1595.78 1942.25C1596.06 1942.25 1596.3 1942.2 1596.5 1942.08C1596.7 1941.97 1596.86 1941.81 1596.97 1941.6C1597.08 1941.39 1597.13 1941.14 1597.13 1940.85C1597.13 1940.57 1597.08 1940.32 1596.97 1940.11C1596.86 1939.9 1596.7 1939.73 1596.51 1939.61C1596.31 1939.5 1596.07 1939.44 1595.81 1939.44C1595.63 1939.44 1595.46 1939.47 1595.3 1939.52C1595.15 1939.58 1595.01 1939.67 1594.9 1939.78C1594.78 1939.9 1594.69 1940.04 1594.62 1940.22C1594.56 1940.39 1594.52 1940.59 1594.52 1940.82V1941.03H1596.83V1940.56H1595.24C1595.24 1940.45 1595.26 1940.36 1595.31 1940.27C1595.36 1940.19 1595.42 1940.12 1595.5 1940.07C1595.59 1940.03 1595.68 1940 1595.79 1940C1595.91 1940 1596.01 1940.03 1596.1 1940.08C1596.19 1940.13 1596.26 1940.2 1596.31 1940.29C1596.36 1940.38 1596.38 1940.48 1596.38 1940.59V1941.03C1596.38 1941.17 1596.36 1941.28 1596.31 1941.38C1596.26 1941.48 1596.18 1941.56 1596.09 1941.61C1596 1941.66 1595.89 1941.69 1595.76 1941.69C1595.68 1941.69 1595.6 1941.68 1595.53 1941.65C1595.46 1941.63 1595.4 1941.59 1595.35 1941.55C1595.3 1941.5 1595.27 1941.44 1595.24 1941.37L1594.54 1941.42C1594.58 1941.59 1594.65 1941.73 1594.76 1941.86C1594.87 1941.98 1595.01 1942.08 1595.18 1942.15C1595.35 1942.22 1595.55 1942.25 1595.78 1942.25ZM1593.25 1942.25C1593.43 1942.25 1593.58 1942.22 1593.72 1942.16C1593.85 1942.1 1593.96 1942.01 1594.04 1941.89C1594.12 1941.77 1594.16 1941.62 1594.16 1941.44C1594.16 1941.29 1594.13 1941.16 1594.08 1941.06C1594.02 1940.95 1593.94 1940.87 1593.85 1940.81C1593.75 1940.75 1593.64 1940.7 1593.52 1940.67C1593.4 1940.63 1593.27 1940.61 1593.13 1940.6C1592.98 1940.58 1592.85 1940.57 1592.75 1940.55C1592.65 1940.54 1592.58 1940.51 1592.54 1940.48C1592.5 1940.46 1592.47 1940.41 1592.47 1940.35V1940.34C1592.47 1940.23 1592.51 1940.14 1592.58 1940.08C1592.65 1940.02 1592.75 1939.99 1592.88 1939.99C1593.01 1939.99 1593.12 1940.02 1593.2 1940.08C1593.28 1940.14 1593.34 1940.21 1593.36 1940.3L1594.06 1940.25C1594.03 1940.08 1593.96 1939.94 1593.85 1939.82C1593.75 1939.7 1593.62 1939.6 1593.45 1939.54C1593.28 1939.47 1593.09 1939.44 1592.88 1939.44C1592.72 1939.44 1592.58 1939.46 1592.44 1939.49C1592.3 1939.53 1592.18 1939.58 1592.07 1939.66C1591.96 1939.73 1591.87 1939.83 1591.81 1939.94C1591.75 1940.06 1591.72 1940.2 1591.72 1940.36V1942.2H1592.43V1941.82H1592.46C1592.5 1941.91 1592.56 1941.98 1592.63 1942.05C1592.71 1942.11 1592.79 1942.16 1592.9 1942.2C1593 1942.23 1593.12 1942.25 1593.25 1942.25ZM1593.04 1941.73C1592.93 1941.73 1592.83 1941.71 1592.74 1941.66C1592.66 1941.62 1592.59 1941.56 1592.54 1941.48C1592.49 1941.41 1592.47 1941.32 1592.47 1941.23V1940.94C1592.49 1940.95 1592.52 1940.97 1592.57 1940.98C1592.61 1940.99 1592.65 1941 1592.7 1941.01C1592.75 1941.02 1592.8 1941.03 1592.86 1941.04C1592.91 1941.05 1592.95 1941.05 1592.99 1941.06C1593.08 1941.07 1593.16 1941.09 1593.23 1941.12C1593.29 1941.15 1593.34 1941.19 1593.38 1941.24C1593.42 1941.28 1593.44 1941.34 1593.44 1941.41C1593.44 1941.52 1593.4 1941.6 1593.32 1941.65C1593.25 1941.7 1593.15 1941.73 1593.04 1941.73ZM1589.68 1939.47V1940.04H1591.32V1939.47H1589.68ZM1590.95 1938.82H1590.19V1941.36C1590.19 1941.43 1590.18 1941.49 1590.16 1941.53C1590.14 1941.56 1590.11 1941.59 1590.07 1941.61C1590.03 1941.62 1589.99 1941.63 1589.94 1941.63C1589.9 1941.63 1589.87 1941.63 1589.83 1941.62C1589.8 1941.61 1589.77 1941.61 1589.75 1941.6L1589.63 1942.17C1589.67 1942.18 1589.72 1942.19 1589.79 1942.21C1589.86 1942.22 1589.94 1942.23 1590.04 1942.24C1590.22 1942.24 1590.38 1942.22 1590.52 1942.16C1590.66 1942.11 1590.76 1942.02 1590.84 1941.91C1590.91 1941.79 1590.95 1941.64 1590.95 1941.46V1938.82ZM1587.97 1942.25C1588.25 1942.25 1588.5 1942.2 1588.7 1942.08C1588.9 1941.97 1589.05 1941.81 1589.16 1941.6C1589.27 1941.39 1589.33 1941.14 1589.33 1940.85C1589.33 1940.57 1589.27 1940.32 1589.16 1940.11C1589.05 1939.9 1588.9 1939.73 1588.7 1939.61C1588.5 1939.5 1588.27 1939.44 1588 1939.44C1587.82 1939.44 1587.66 1939.47 1587.5 1939.52C1587.35 1939.58 1587.21 1939.67 1587.09 1939.78C1586.98 1939.9 1586.88 1940.04 1586.82 1940.22C1586.75 1940.39 1586.72 1940.59 1586.72 1940.82V1941.03H1589.02V1940.56H1587.43C1587.43 1940.45 1587.46 1940.36 1587.51 1940.27C1587.55 1940.19 1587.62 1940.12 1587.7 1940.07C1587.79 1940.03 1587.88 1940 1587.99 1940C1588.11 1940 1588.21 1940.03 1588.3 1940.08C1588.38 1940.13 1588.45 1940.2 1588.5 1940.29C1588.55 1940.38 1588.58 1940.48 1588.58 1940.59V1941.03C1588.58 1941.17 1588.55 1941.28 1588.5 1941.38C1588.45 1941.48 1588.38 1941.56 1588.29 1941.61C1588.2 1941.66 1588.09 1941.69 1587.96 1941.69C1587.88 1941.69 1587.8 1941.68 1587.73 1941.65C1587.66 1941.63 1587.6 1941.59 1587.55 1941.55C1587.5 1941.5 1587.46 1941.44 1587.44 1941.37L1586.74 1941.42C1586.77 1941.59 1586.85 1941.73 1586.96 1941.86C1587.07 1941.98 1587.21 1942.08 1587.38 1942.15C1587.55 1942.22 1587.75 1942.25 1587.97 1942.25ZM1585.22 1942.24C1585.43 1942.24 1585.62 1942.19 1585.79 1942.08C1585.95 1941.98 1586.09 1941.82 1586.18 1941.61C1586.28 1941.4 1586.33 1941.14 1586.33 1940.84C1586.33 1940.53 1586.28 1940.27 1586.18 1940.06C1586.08 1939.85 1585.94 1939.7 1585.78 1939.59C1585.61 1939.49 1585.43 1939.44 1585.23 1939.44C1585.07 1939.44 1584.95 1939.46 1584.84 1939.52C1584.74 1939.57 1584.66 1939.63 1584.59 1939.71C1584.53 1939.78 1584.48 1939.86 1584.45 1939.93H1584.43V1938.56H1583.67V1942.2H1584.42V1941.76H1584.45C1584.48 1941.84 1584.54 1941.91 1584.6 1941.99C1584.66 1942.06 1584.75 1942.12 1584.85 1942.17C1584.95 1942.22 1585.08 1942.24 1585.22 1942.24ZM1584.98 1941.64C1584.86 1941.64 1584.76 1941.61 1584.67 1941.54C1584.59 1941.48 1584.52 1941.38 1584.48 1941.26C1584.43 1941.14 1584.41 1941 1584.41 1940.84C1584.41 1940.67 1584.43 1940.53 1584.48 1940.41C1584.52 1940.29 1584.59 1940.2 1584.67 1940.14C1584.76 1940.07 1584.86 1940.04 1584.98 1940.04C1585.11 1940.04 1585.21 1940.07 1585.3 1940.14C1585.38 1940.21 1585.45 1940.3 1585.49 1940.42C1585.54 1940.54 1585.56 1940.68 1585.56 1940.84C1585.56 1941 1585.54 1941.14 1585.49 1941.26C1585.45 1941.38 1585.38 1941.47 1585.3 1941.54C1585.21 1941.61 1585.11 1941.64 1584.98 1941.64ZM1581.88 1942.2V1938.56H1581.12V1939.93H1581.1C1581.07 1939.86 1581.02 1939.78 1580.95 1939.71C1580.89 1939.63 1580.81 1939.57 1580.71 1939.52C1580.6 1939.46 1580.48 1939.44 1580.32 1939.44C1580.12 1939.44 1579.94 1939.49 1579.77 1939.59C1579.6 1939.7 1579.47 1939.85 1579.37 1940.06C1579.27 1940.27 1579.22 1940.53 1579.22 1940.84C1579.22 1941.14 1579.27 1941.4 1579.37 1941.61C1579.46 1941.82 1579.6 1941.98 1579.76 1942.08C1579.93 1942.19 1580.12 1942.24 1580.32 1942.24C1580.47 1942.24 1580.6 1942.22 1580.7 1942.17C1580.8 1942.12 1580.88 1942.06 1580.95 1941.99C1581.01 1941.91 1581.06 1941.84 1581.1 1941.76H1581.13V1942.2H1581.88ZM1581.14 1940.84C1581.14 1941 1581.12 1941.14 1581.07 1941.26C1581.03 1941.38 1580.96 1941.48 1580.88 1941.54C1580.79 1941.61 1580.69 1941.64 1580.56 1941.64C1580.44 1941.64 1580.34 1941.61 1580.25 1941.54C1580.17 1941.47 1580.1 1941.38 1580.06 1941.26C1580.01 1941.14 1579.99 1941 1579.99 1940.84C1579.99 1940.68 1580.01 1940.54 1580.06 1940.42C1580.1 1940.3 1580.16 1940.21 1580.25 1940.14C1580.34 1940.07 1580.44 1940.04 1580.56 1940.04C1580.69 1940.04 1580.79 1940.07 1580.88 1940.14C1580.96 1940.2 1581.03 1940.29 1581.07 1940.41C1581.12 1940.53 1581.14 1940.67 1581.14 1940.84ZM1578.33 1943.22C1578.43 1943.22 1578.52 1943.22 1578.6 1943.2C1578.69 1943.19 1578.76 1943.17 1578.81 1943.14L1578.64 1942.58C1578.55 1942.61 1578.47 1942.62 1578.4 1942.62C1578.33 1942.63 1578.27 1942.61 1578.21 1942.57C1578.16 1942.54 1578.12 1942.48 1578.08 1942.39L1578.04 1942.28L1579.02 1939.47H1578.22L1577.66 1941.48H1577.63L1577.06 1939.47H1576.26L1577.32 1942.49C1577.37 1942.64 1577.44 1942.77 1577.53 1942.88C1577.61 1942.99 1577.72 1943.07 1577.86 1943.13C1577.99 1943.19 1578.15 1943.22 1578.33 1943.22ZM1574.03 1941.42L1574.03 1940.51H1573.92L1573.04 1939.47H1572.18L1573.35 1940.84H1573.53L1574.03 1941.42ZM1574.71 1942.2V1938.56H1573.96V1942.2H1574.71ZM1573.01 1942.2L1573.81 1941.01L1573.31 1940.48L1572.12 1942.2H1573.01ZM1570.06 1941.04V1939.47H1569.3V1942.2H1570.03V1941.7H1570.05C1570.12 1941.86 1570.22 1941.99 1570.36 1942.09C1570.5 1942.19 1570.68 1942.24 1570.88 1942.24C1571.06 1942.24 1571.22 1942.19 1571.36 1942.11C1571.5 1942.03 1571.61 1941.91 1571.69 1941.76C1571.76 1941.61 1571.8 1941.42 1571.8 1941.21V1939.47H1571.05V1941.07C1571.05 1941.24 1571 1941.36 1570.92 1941.46C1570.83 1941.55 1570.72 1941.6 1570.58 1941.6C1570.48 1941.6 1570.4 1941.58 1570.32 1941.53C1570.24 1941.49 1570.18 1941.43 1570.13 1941.35C1570.08 1941.26 1570.05 1941.16 1570.06 1941.04ZM1568.69 1942.2V1939.47H1567.97V1939.95H1567.94C1567.88 1939.79 1567.79 1939.67 1567.66 1939.58C1567.52 1939.48 1567.37 1939.44 1567.18 1939.44C1566.99 1939.44 1566.84 1939.48 1566.7 1939.58C1566.57 1939.67 1566.48 1939.8 1566.44 1939.95H1566.41C1566.36 1939.8 1566.26 1939.67 1566.11 1939.58C1565.96 1939.48 1565.79 1939.44 1565.59 1939.44C1565.34 1939.44 1565.13 1939.52 1564.97 1939.68C1564.81 1939.84 1564.73 1940.07 1564.73 1940.37V1942.2H1565.49V1940.52C1565.49 1940.36 1565.53 1940.25 1565.61 1940.17C1565.69 1940.1 1565.79 1940.06 1565.91 1940.06C1566.05 1940.06 1566.15 1940.1 1566.23 1940.19C1566.31 1940.28 1566.35 1940.39 1566.35 1940.53V1942.2H1567.08V1940.5C1567.08 1940.37 1567.12 1940.26 1567.19 1940.18C1567.27 1940.1 1567.37 1940.06 1567.49 1940.06C1567.58 1940.06 1567.65 1940.08 1567.72 1940.12C1567.79 1940.17 1567.84 1940.22 1567.88 1940.3C1567.92 1940.37 1567.94 1940.46 1567.94 1940.56V1942.2H1568.69ZM1563.36 1942.25C1563.53 1942.25 1563.69 1942.22 1563.82 1942.16C1563.96 1942.1 1564.07 1942.01 1564.14 1941.89C1564.22 1941.77 1564.26 1941.62 1564.26 1941.44C1564.26 1941.29 1564.23 1941.16 1564.18 1941.06C1564.12 1940.95 1564.05 1940.87 1563.95 1940.81C1563.85 1940.75 1563.75 1940.7 1563.62 1940.67C1563.5 1940.63 1563.37 1940.61 1563.24 1940.6C1563.08 1940.58 1562.95 1940.57 1562.85 1940.55C1562.76 1940.54 1562.69 1940.51 1562.64 1940.48C1562.6 1940.46 1562.58 1940.41 1562.58 1940.35V1940.34C1562.58 1940.23 1562.61 1940.14 1562.68 1940.08C1562.75 1940.02 1562.85 1939.99 1562.98 1939.99C1563.12 1939.99 1563.23 1940.02 1563.31 1940.08C1563.39 1940.14 1563.44 1940.21 1563.47 1940.3L1564.17 1940.25C1564.13 1940.08 1564.06 1939.94 1563.96 1939.82C1563.85 1939.7 1563.72 1939.6 1563.55 1939.54C1563.39 1939.47 1563.2 1939.44 1562.98 1939.44C1562.83 1939.44 1562.68 1939.46 1562.54 1939.49C1562.4 1939.53 1562.28 1939.58 1562.17 1939.66C1562.06 1939.73 1561.98 1939.83 1561.91 1939.94C1561.85 1940.06 1561.82 1940.2 1561.82 1940.36V1942.2H1562.54V1941.82H1562.56C1562.6 1941.91 1562.66 1941.98 1562.73 1942.05C1562.81 1942.11 1562.9 1942.16 1563 1942.2C1563.1 1942.23 1563.22 1942.25 1563.36 1942.25ZM1563.14 1941.73C1563.03 1941.73 1562.93 1941.71 1562.84 1941.66C1562.76 1941.62 1562.69 1941.56 1562.64 1941.48C1562.6 1941.41 1562.57 1941.32 1562.57 1941.23V1940.94C1562.59 1940.95 1562.63 1940.97 1562.67 1940.98C1562.71 1940.99 1562.75 1941 1562.81 1941.01C1562.86 1941.02 1562.91 1941.03 1562.96 1941.04C1563.01 1941.05 1563.06 1941.05 1563.1 1941.06C1563.19 1941.07 1563.26 1941.09 1563.33 1941.12C1563.4 1941.15 1563.45 1941.19 1563.48 1941.24C1563.52 1941.28 1563.54 1941.34 1563.54 1941.41C1563.54 1941.52 1563.5 1941.6 1563.43 1941.65C1563.35 1941.7 1563.26 1941.73 1563.14 1941.73ZM1560.55 1941.42L1560.55 1940.51H1560.44L1559.56 1939.47H1558.69L1559.87 1940.84H1560.05L1560.55 1941.42ZM1561.23 1942.2V1938.56H1560.48V1942.2H1561.23ZM1559.53 1942.2L1560.33 1941.01L1559.83 1940.48L1558.64 1942.2H1559.53ZM1557.55 1942.25C1557.72 1942.25 1557.87 1942.22 1558.01 1942.16C1558.15 1942.1 1558.25 1942.01 1558.33 1941.89C1558.41 1941.77 1558.45 1941.62 1558.45 1941.44C1558.45 1941.29 1558.42 1941.16 1558.37 1941.06C1558.31 1940.95 1558.24 1940.87 1558.14 1940.81C1558.04 1940.75 1557.94 1940.7 1557.81 1940.67C1557.69 1940.63 1557.56 1940.61 1557.43 1940.6C1557.27 1940.58 1557.14 1940.57 1557.04 1940.55C1556.95 1940.54 1556.88 1940.51 1556.83 1940.48C1556.79 1940.46 1556.77 1940.41 1556.77 1940.35V1940.34C1556.77 1940.23 1556.8 1940.14 1556.87 1940.08C1556.94 1940.02 1557.04 1939.99 1557.17 1939.99C1557.31 1939.99 1557.42 1940.02 1557.5 1940.08C1557.58 1940.14 1557.63 1940.21 1557.66 1940.3L1558.36 1940.25C1558.32 1940.08 1558.25 1939.94 1558.15 1939.82C1558.04 1939.7 1557.91 1939.6 1557.74 1939.54C1557.58 1939.47 1557.39 1939.44 1557.17 1939.44C1557.02 1939.44 1556.87 1939.46 1556.73 1939.49C1556.59 1939.53 1556.47 1939.58 1556.36 1939.66C1556.25 1939.73 1556.17 1939.83 1556.1 1939.94C1556.04 1940.06 1556.01 1940.2 1556.01 1940.36V1942.2H1556.73V1941.82H1556.75C1556.79 1941.91 1556.85 1941.98 1556.92 1942.05C1557 1942.11 1557.09 1942.16 1557.19 1942.2C1557.29 1942.23 1557.41 1942.25 1557.55 1942.25ZM1557.33 1941.73C1557.22 1941.73 1557.12 1941.71 1557.03 1941.66C1556.95 1941.62 1556.88 1941.56 1556.83 1941.48C1556.78 1941.41 1556.76 1941.32 1556.76 1941.23V1940.94C1556.78 1940.95 1556.82 1940.97 1556.86 1940.98C1556.9 1940.99 1556.94 1941 1557 1941.01C1557.05 1941.02 1557.1 1941.03 1557.15 1941.04C1557.2 1941.05 1557.24 1941.05 1557.29 1941.06C1557.37 1941.07 1557.45 1941.09 1557.52 1941.12C1557.59 1941.15 1557.64 1941.19 1557.67 1941.24C1557.71 1941.28 1557.73 1941.34 1557.73 1941.41C1557.73 1941.52 1557.69 1941.6 1557.62 1941.65C1557.54 1941.7 1557.44 1941.73 1557.33 1941.73ZM1555.42 1942.2V1939.47H1554.7V1939.95H1554.67C1554.61 1939.79 1554.52 1939.67 1554.39 1939.58C1554.25 1939.48 1554.09 1939.44 1553.91 1939.44C1553.72 1939.44 1553.56 1939.48 1553.43 1939.58C1553.3 1939.67 1553.21 1939.8 1553.17 1939.95H1553.14C1553.09 1939.8 1552.98 1939.67 1552.84 1939.58C1552.69 1939.48 1552.52 1939.44 1552.32 1939.44C1552.06 1939.44 1551.86 1939.52 1551.7 1939.68C1551.54 1939.84 1551.46 1940.07 1551.46 1940.37V1942.2H1552.21V1940.52C1552.21 1940.36 1552.25 1940.25 1552.34 1940.17C1552.42 1940.1 1552.52 1940.06 1552.64 1940.06C1552.77 1940.06 1552.88 1940.1 1552.96 1940.19C1553.04 1940.28 1553.07 1940.39 1553.07 1940.53V1942.2H1553.81V1940.5C1553.81 1940.37 1553.85 1940.26 1553.92 1940.18C1554 1940.1 1554.1 1940.06 1554.22 1940.06C1554.31 1940.06 1554.38 1940.08 1554.45 1940.12C1554.52 1940.17 1554.57 1940.22 1554.61 1940.3C1554.65 1940.37 1554.67 1940.46 1554.67 1940.56V1942.2H1555.42ZM1549.11 1941.04V1939.47H1548.36V1942.2H1549.08V1941.7H1549.11C1549.17 1941.86 1549.28 1941.99 1549.42 1942.09C1549.56 1942.19 1549.73 1942.24 1549.94 1942.24C1550.12 1942.24 1550.28 1942.19 1550.42 1942.11C1550.56 1942.03 1550.67 1941.91 1550.75 1941.76C1550.82 1941.61 1550.86 1941.42 1550.86 1941.21V1939.47H1550.11V1941.07C1550.1 1941.24 1550.06 1941.36 1549.98 1941.46C1549.89 1941.55 1549.78 1941.6 1549.63 1941.6C1549.54 1941.6 1549.46 1941.58 1549.38 1941.53C1549.3 1941.49 1549.23 1941.43 1549.19 1941.35C1549.14 1941.26 1549.11 1941.16 1549.11 1941.04Z" fill="url(#paint2_linear_30_9)"/>
</g>
<defs>
<linearGradient id="paint0_linear_30_9" x1="951.798" y1="434.667" x2="951.798" y2="1470.07" gradientUnits="userSpaceOnUse">
<stop stop-color="#04002D" stop-opacity="0.64"/>
<stop offset="1" stop-color="#0B0084"/>
</linearGradient>
<linearGradient id="paint1_linear_30_9" x1="433.628" y1="134.635" x2="433.628" y2="734.8" gradientUnits="userSpaceOnUse">
<stop stop-color="#04002D" stop-opacity="0.64"/>
<stop offset="1" stop-color="#0B0084"/>
</linearGradient>
<linearGradient id="paint2_linear_30_9" x1="684.615" y1="1937.2" x2="684.615" y2="2137.6" gradientUnits="userSpaceOnUse">
<stop stop-color="#04002D" stop-opacity="0.64"/>
<stop offset="1" stop-color="#0B0084"/>
</linearGradient>
<clipPath id="clip0_30_9">
<rect width="1603" height="2004" fill="white" transform="matrix(-1 0 0 1 1603 0)"/>
</clipPath>
</defs>
</svg>
