<svg xmlns="http://www.w3.org/2000/svg" viewBox="0 0 24 24">
  <path fill="#F8C304" d="M4.5 7.5C5.328 7.5 6 8.172 6 9v10.5c0 .828-.672 1.5-1.5 1.5h-3C.672 21 0 20.328 0 19.5V9c0-.828.672-1.5 1.5-1.5h3Z"/>
  <path fill="#B3B3B3" d="M10.5 3c.828 0 1.5.672 1.5 1.5v15c0 .828-.672 1.5-1.5 1.5h-3C6.672 21 6 20.328 6 19.5v-15C6 3.672 6.672 3 7.5 3h3Z"/>
  <path fill="#1F8ACB" d="M16.5 0c.828 0 1.5.672 1.5 1.5v18c0 .828-.672 1.5-1.5 1.5h-3c-.828 0-1.5-.672-1.5-1.5v-18c0-.828.672-1.5 1.5-1.5h3Z"/>
</svg> 