<svg xmlns="http://www.w3.org/2000/svg" viewBox="0 0 24 24" fill="#6D4B2F">
  <path d="M12 23.5c-.4 0-.9 0-1.3-.1-4.2-.7-6.1-5.3-5.6-9.2.4-3.7 1.6-5.2 2.2-6.2.5-.9.9-1.6.9-3 0-.2.1-.5.3-.7.2-.2.4-.3.7-.3.5 0 .9.4.9.9V6c0 .8.3 1.5 1 1.5.5 0 .9-.5.9-1.5l.1-1.1c0-.3.1-.6.3-.8.2-.2.5-.3.7-.3.5 0 1 .4 1 1v1c0 1 .4 1.6 1 1.6.5 0 .9-.5.9-1.5V4c0-.5.4-1 1-1 .5 0 1 .4 1 1v.8c0 .9.4 1.5.9 1.5s1-.6 1-1.5V3c0-.5.4-1 1-1 .5 0 1 .4 1 1 0 1.3-.4 2.1-.9 3-.5.9-1.1 2.1-1.4 4.2-.3 2.1 0 4.6-1.2 6.8-1.6 2.9-4.3 5.2-6.1 6.2-1 .6-2.3.3-2.3.3zM12 21.5c0-.4-.1-.9-.3-1.3-.2-.4-.6-.8-1-1-.4-.2-.9-.3-1.3-.3-.5 0-.9.1-1.3.3-.4.2-.8.6-1 1-.2.4-.3.9-.3 1.3s.1.9.3 1.3c.2.4.6.8 1 1 .4.2.9.3 1.3.3.5 0 .9-.1 1.3-.3.4-.2.8-.6 1-1 .2-.4.3-.9.3-1.3zm-6-15c.6 0 1-.4 1-1s-.4-1-1-1-1 .4-1 1 .4 1 1 1zm-2 3c.6 0 1-.4 1-1s-.4-1-1-1-1 .4-1 1 .4 1 1 1zm-1 5c.6 0 1-.4 1-1s-.4-1-1-1-1 .4-1 1 .4 1 1 1zm16-3c.6 0 1-.4 1-1s-.4-1-1-1-1 .4-1 1 .4 1 1 1zm-1 4c.6 0 1-.4 1-1s-.4-1-1-1-1 .4-1 1 .4 1 1 1z" />
</svg> 