<svg xmlns="http://www.w3.org/2000/svg" viewBox="0 0 94 94" fill="#5B4638">
  <path d="M45.979 34.214c.51-3.811 2.362-6.558 4.767-6.558s4.258 2.748 4.768 6.558H45.98zm9.469 3.11c-.204 4.214-2.362 7.37-4.767 7.37s-4.563-3.156-4.768-7.37h9.535zM35.93 34.214c.51-3.811 2.362-6.558 4.768-6.558 2.407 0 4.258 2.748 4.768 6.558H35.93zm9.469 3.11c-.204 4.214-2.361 7.37-4.767 7.37-2.407 0-4.563-3.156-4.768-7.37h9.535zm18.019 29.598c.806 0 1.612-.312 2.213-1.05a4.2 4.2 0 0 0 .907-2.63c0-.836-.187-1.673-.573-2.41a67.56 67.56 0 0 0-2.32-3.982 11.29 11.29 0 0 1-1.408-2.628c-.196-.6-.294-1.2-.196-1.8.104-.6.313-1.183.637-1.648.294-.464.689-.836 1.08-1.182.96-.836 2.007-1.466 3.087-1.956 2.194-.996 4.397-1.466 6.695-1.572.196 0 .386-.106.49-.31.095-.204 0-.418-.196-.516-.584-.31-1.08-.746-1.573-1.16-.48-.42-.97-.94-1.459-1.36-.287-.31-.584-.512-.98-.42a21.22 21.22 0 0 0-2.514.839c-.637.206-1.277.51-1.915.736-.68.24-1.363.29-2.04.145-.68-.144-1.263-.48-1.817-.839a44.79 44.79 0 0 0-2.407-1.572c-.783-.51-1.574-.927-2.465-1.21a5.178 5.178 0 0 0-2.706-.151c-.876.207-1.67.724-2.298 1.362-1.266 1.264-2.302 2.622-3.192 4.086-.876 1.458-1.67 2.916-2.303 4.48-.63 1.572-1.065 3.25-1.257 4.92-.196 1.673-.099 3.352.287 4.914.14.56.321 1.103.532 1.639h-.22c.14-.536.32-1.08.462-1.639.385-1.563.482-3.24.286-4.913-.192-1.67-.628-3.348-1.257-4.92-.633-1.563-1.426-3.021-2.302-4.48-.89-1.464-1.927-2.822-3.193-4.086-.628-.638-1.422-1.155-2.298-1.362-.876-.207-1.816-.103-2.706.151-.89.283-1.68.7-2.465 1.21a45.1 45.1 0 0 0-2.407 1.572c-.553.36-1.136.695-1.816.839-.68.145-1.361.095-2.04-.145a35.29 35.29 0 0 1-1.915-.736 21.18 21.18 0 0 0-2.514-.839c-.396-.092-.693.11-.98.42-.49.42-.98.94-1.47 1.36-.49.414-.988.85-1.57 1.16a.519.519 0 0 0-.197.516c.105.204.294.31.49.31 2.3.106 4.502.576 6.696 1.572 1.08.49 2.127 1.12 3.087 1.956.391.346.786.718 1.08 1.182.323.465.532 1.047.636 1.647.098.6 0 1.2-.196 1.8a11.29 11.29 0 0 1-1.407 2.629c-.89 1.362-1.67 2.727-2.32 3.982-.387.737-.574 1.574-.574 2.41 0 .97.294 1.956.908 2.63.601.738 1.407 1.05 2.213 1.05.8 0 1.602-.312 2.19-1.017.593-.704.9-1.712.883-2.716-.009-.97-.275-1.883-.71-2.72l-.003-.006c.004.01.01.018.014.027-.434.837-.71 1.828-.718 2.798-.018 1.005.289 2.012.882 2.717.588.705 1.39 1.017 2.19 1.017.806 0 1.612-.312 2.213-1.05a4.2 4.2 0 0 0 .907-2.629c0-.836-.187-1.673-.573-2.41a127.436 127.436 0 0 0-1.53-2.778c.41.734.831 1.462 1.264 2.183a44.493 44.493 0 0 0 1.915 2.913c.617.793 1.345 1.493 2.202 1.96a4.62 4.62 0 0 0 2.626.614c.874-.099 1.68-.48 2.36-1.035.678-.554 1.243-1.28 1.702-2.057.458-.777.81-1.628 1.042-2.501.069-.26.1-.511.152-.76h.082c.052.249.084.5.152.76.232.873.585 1.724 1.043 2.501.46.778 1.024 1.503 1.702 2.057.681.555 1.486.936 2.36 1.035a4.62 4.62 0 0 0 2.626-.613c.857-.467 1.585-1.168 2.202-1.96a44.504 44.504 0 0 0 1.915-2.914c.431-.72.852-1.45 1.265-2.183-.537.937-1.038 1.866-1.53 2.778-.387.737-.574 1.574-.574 2.41 0 .97.294 1.956.908 2.63.6.738 1.407 1.05 2.213 1.05.8 0 1.602-.312 2.19-1.017.593-.705.9-1.712.883-2.717-.009-.97-.286-1.96-.72-2.798l.015-.027c-.003.002-.005.004-.005.006-.434.837-.7 1.75-.709 2.72-.018 1.004.29 2.012.883 2.716.589.705 1.39 1.017 2.19 1.017zm7.866-39.342c.294.208.392.622.196.933-.72 1.186-1.514 2.275-2.284 3.257a.594.594 0 0 1-.784.224.61.61 0 0 1-.239-.813c.553-1.03 1.144-2.01 1.805-2.871.196-.274.573-.432.887-.325.14.104.293.207.419.414zm1.9 1.051c.293.207.392.622.195.933-.72 1.186-1.513 2.275-2.284 3.257a.595.595 0 0 1-.784.224.61.61 0 0 1-.238-.813c.552-1.03 1.143-2.01 1.805-2.871.196-.274.572-.432.887-.325.14.104.28.207.419.414zm1.878-.107c.294.208.392.622.196.933-.719 1.186-1.513 2.275-2.284 3.258a.595.595 0 0 1-.784.223.61.61 0 0 1-.238-.813c.552-1.03 1.143-2.01 1.805-2.871.196-.274.572-.432.887-.325.14.104.293.207.418.414z"/>
  <path d="M55.24 13.92c-.784-1.154-1.967-1.955-3.264-2.286-1.298-.331-2.682-.196-3.875.407-1.193.6-2.152 1.677-2.682 2.949-.53 1.27-.635 2.71-.289 4.046h-.015c-1.85-2.493-4.8-3.854-7.774-3.596-2.976.257-5.617 2.13-6.97 4.938-1.35 2.808-1.1 6.146.661 8.762H30.9a9.035 9.035 0 0 0-.387-5.06 9.016 9.016 0 0 0-3.21-4.185 8.945 8.945 0 0 0-4.998-1.56 8.945 8.945 0 0 0-5.004 1.54 9.017 9.017 0 0 0-3.222 4.175 9.035 9.035 0 0 0-.402 5.06 9.032 9.032 0 0 0 2.487 4.513 8.945 8.945 0 0 0 4.638 2.314c-1.837 2.028-2.752 4.717-2.535 7.427.219 2.71 1.577 5.2 3.767 6.897 2.188 1.699 5.008 2.31 7.687 1.689a9.244 9.244 0 0 0 6.21-4.887h.152a9.244 9.244 0 0 0 6.209 4.887c2.679.622 5.5.01 7.688-1.689 2.19-1.697 3.548-4.187 3.767-6.897.217-2.71-.699-5.399-2.536-7.427a8.945 8.945 0 0 0 4.638-2.314 9.032 9.032 0 0 0 2.488-4.513 9.035 9.035 0 0 0-.402-5.06 9.017 9.017 0 0 0-3.222-4.175 8.945 8.945 0 0 0-5.004-1.54c-.345-.022-.691-.008-1.034.041zm-8.4 1.26c1.1.013 2.15.48 2.92 1.284a4.28 4.28 0 0 1 1.227 2.996c0 1.132-.438 2.219-1.226 3.022-.787.803-1.856 1.256-2.97 1.256-1.116 0-2.184-.453-2.971-1.256a4.282 4.282 0 0 1-1.226-3.022c0-1.153.448-2.223 1.227-2.995a4.196 4.196 0 0 1 2.979-1.284h.04zm-16.11 0c1.1.013 2.15.48 2.92 1.284a4.28 4.28 0 0 1 1.227 2.996c0 1.132-.438 2.219-1.226 3.022-.787.803-1.856 1.256-2.97 1.256-1.116 0-2.184-.453-2.971-1.256a4.282 4.282 0 0 1-1.226-3.022c0-1.153.448-2.223 1.227-2.995a4.196 4.196 0 0 1 2.979-1.284h.04z"/>
</svg> 