<svg xmlns="http://www.w3.org/2000/svg" viewBox="0 0 512 512" fill="#fa7328">
  <path d="M256 0C114.84 0 0 114.84 0 256s114.84 256 256 256 256-114.84 256-256S397.16 0 256 0zm0 448c-106.04 0-192-85.96-192-192S149.96 64 256 64s192 85.96 192 192-85.96 192-192 192z"/>
  <path d="M384 192c0-70.7-57.3-128-128-128s-128 57.3-128 128c0 44.1 22.3 83 56.4 106.1l20.9-36.2c-23.2-16.3-38.4-43.1-38.4-73.3 0-49.1 39.7-88.9 88.9-88.9s88.9 39.7 88.9 88.9c0 30.2-15.2 57-38.4 73.3l20.9 36.2C361.7 275 384 236.1 384 192z"/>
  <path d="M256 224c-17.7 0-32 14.3-32 32s14.3 32 32 32 32-14.3 32-32-14.3-32-32-32zm0 96c-35.3 0-64-28.7-64-64s28.7-64 64-64 64 28.7 64 64-28.7 64-64 64z"/>
  <path d="M313.6 339.2c-6.7-11.6-21.6-15.5-33.2-8.8l-24.3 14.1-24.3-14.1c-11.6-6.7-26.5-2.8-33.2 8.8-6.7 11.6-2.8 26.5 8.8 33.2L256 395.6l48.6-28c11.6-6.7 15.5-21.6 8.8-33.2z"/>
</svg> 