<svg xmlns="http://www.w3.org/2000/svg" viewBox="0 0 77 39" fill="#2F8D46">
  <path d="M16.806 30.528h-4.179V14.845h4.179v6.695c0 2.588 3.3 2.588 4.179 2.147v-8.842h4.179v11.868c-.352 3.03-5.498 5.695-8.358 3.816zm47.388-4.914c-2.587 1.323-7.66-.53-7.66-4.178v-6.59h4.178v5.486c0 1.984 3.3 1.984 3.3 0v-5.487h4.18v10.769zm-15.145-1.323c-.088-.97 0-2.146.265-3.99.176-1.234.528-2.558.88-3.726l2.205-6.73h4.09l-2.205 6.73-1.678 5.046c-1.322 4.002-3.293 6.06-6.674 6.677-1.058.175-2.734.175-3.822 0-.265-1.234-.528-2.499-.88-3.733 1.678.265 3.381.265 4.002-.264.617-.529 1.234-1.587 1.587-2.822.352-1.235.176-3.382-.176-4.09h-5.322l-3.205 9.84h-4.09l3.206-9.84h-2.733v-3.733h4.09l.705-2.205h4.178l-.712 2.205h5.235c.705 0 1.323.352 1.675.969.353.617.53 1.41.442 2.204 0 .176-.088.44-.088.617-.528 4.002-1.322 8.006-1.85 12.008l-.44.176.18-1.5.03-1.851zm-35.75-3.03c0 2.94-4.09 4.354-7.749 4.354-3.117 0-5.674-1.058-6.733-3.292-.617-1.235-.97-2.734-1.146-4.09-.177-1.411-.177-2.822-.088-4.233.088-1.322.352-2.646.705-3.98.44-1.234.97-2.381 1.675-3.47.704-1.058 1.587-1.939 2.646-2.558 1.058-.617 2.293-.969 3.557-1.058 1.235-.088 2.47.088 3.646.617 1.058.53 1.998 1.323 2.646 2.293.617.97 1.058 2.117 1.234 3.263.177 1.146.177 2.293.088 3.47h-12.09l.177 2.204c.177.441.354.97.617 1.323.353.352.794.706 1.323.794.529.088 1.058.088 1.587-.088.528-.176.97-.528 1.234-.97.264-.44.44-.969.528-1.41h4.178c.088 1.41.44 2.91.088 4.09-.353 1.146-.793 2.293-1.323 3.205v-.44h.001zm-7.573-12.273c-1.675 0-3.028 1.41-2.94 3.116h5.674c.088-.44 0-.969-.088-1.41-.177-.44-.441-.881-.88-1.146-.441-.352-.97-.528-1.587-.528l-.18-.032zm43.828 2.587c0-2.764 3.822-5.44 8.358-3.383 4.002 1.851 4.002 7.572 0 9.398-4.09 1.851-8.358-.44-8.358-3.558v-2.457zm4.178 0v2.457c0 .97 3.3.97 3.3 0v-2.457c0-.97-3.3-.97-3.3 0zm8.9 7.395l-.441 4.178C60.9 26.615 53.063 30.88 44.441 30.88c-12.626.176-23.305-10.24-23.305-23.041.088-12.62 10.857-23.212 23.569-23.036 8.535 0 16.29 4.354 20.127 10.945l-3.822 2.147C57.873 5.135 51.124 1.51 44.177 1.51c-10.77 0-19.48 8.8-19.568 19.657-.088 10.857 8.71 19.833 19.568 19.833 6.058 0 11.654-2.734 15.291-7.484l3.05.882z"/>
</svg> 