<svg xmlns="http://www.w3.org/2000/svg" viewBox="0 0 24 24">
  <path d="M0 0v24h24V0H0zm9.95 8.002h1.805c.061 0 .111.05.111.111v7.767c0 .061-.05.111-.11.111H9.95c-.061 0-.111-.05-.111-.111v-2.87H8.857v2.87c0 .061-.05.111-.11.111H6.94c-.061 0-.11-.05-.11-.111V8.113c0-.061.049-.111.11-.111h1.805c.061 0 .11.05.11.111v2.869h.982V8.113c0-.061.05-.111.111-.111zm2.999 0h5.679c.061 0 .11.05.11.111v7.767c0 .061-.049.111-.11.111h-5.679c-.061 0-.11-.05-.11-.111V8.113c0-.061.049-.111.11-.111zm2.875 5.557h.088V8.113c0-.061-.049-.111-.11-.111h-1.782c-.061 0-.11.05-.11.111v7.767c0 .061.049.111.11.111h1.782c.061 0 .11-.05.11-.111v-2.322z" fill="#00EA64" />
</svg> 