<svg xmlns="http://www.w3.org/2000/svg" viewBox="0 0 24 24" fill="#00EA64">
  <path d="M12 0c1.285 0 9.75 4.886 10.392 6 .645 1.115.645 10.885 0 12S13.287 24 12 24s-9.75-4.885-10.395-6c-.641-1.115-.641-10.885 0-12C2.25 4.886 10.715 0 12 0zm2.295 6.799a.259.259 0 0 0-.258.258v3.875H9.963V6.908h2.075v-1.85h-2.075v-.259c0-.142-.116-.258-.258-.258h-1.3a.259.259 0 0 0-.258.258v.259H6.071v1.85h2.075v4.025H7.108a.259.259 0 0 0-.258.258v1.3c0 .142.116.258.258.258h1.038v1.85H6.071v1.85h2.075v.258c0 .142.116.258.258.258h1.3a.259.259 0 0 0 .258-.258v-.258h2.075v-1.85h-2.075v-1.85h4.074v3.874c0 .142.116.258.258.258h1.3c.142 0 .258-.116.258-.258v-9.1a.259.259 0 0 0-.258-.258h-1.3z"/>
</svg> 