<svg xmlns="http://www.w3.org/2000/svg" viewBox="0 0 24 24" fill="#323754">
  <path d="M2 12C2 6.48 6.48 2 12 2s10 4.48 10 10-4.48 10-10 10S2 17.52 2 12zm7.55-3.13c-.16-.17-.4-.27-.66-.27H7.25v7.79h1.78c.19 0 .35-.15.35-.35v-2.77h.49c.26 0 .52-.1.69-.27.03-.03.05-.05.08-.08a.87.87 0 00.15-.24c.04-.1.07-.22.07-.33v-2.78c0-.12-.03-.23-.07-.33s-.1-.21-.15-.24c-.03-.03-.05-.07-.09-.1zm-1.16 3.92V9.33h.87v3.46h-.87zm3.91 3.4h1.02V9.3h-1.02v6.89zm5.25-5.88v-.99h-2.36v1h1.09v6.02h1.27v-6.03z" />
</svg> 