<svg xmlns="http://www.w3.org/2000/svg" viewBox="0 0 24 24" fill="#2C3454">
  <path d="M22.204 9.023c-1.941-1.397-5.315-2.375-5.327-2.379a.636.636 0 0 0-.801.4.636.636 0 0 0 .4.801c.052.016 1.311.382.382.382 2.073.633 4.09 1.478 5.428 2.47.67.496 1.065 1.04 1.065 1.482 0 1.953-4.805 3.907-11.616 3.907-6.81 0-11.615-1.954-11.615-3.907 0-.442.394-.986 1.064-1.482 1.338-.992 3.355-1.837 5.429-2.47.051 0 1.31-.366 1.362-.381a.636.636 0 0 0 .398-.8.636.636 0 0 0-.801-.401c-.012.004-3.386.982-5.327 2.38C.641 9.95.001 10.958.001 11.78c0 3.373 5.831 5.18 12.888 5.18 7.057 0 12.889-1.807 12.889-5.18 0-.822-.64-1.83-1.574-2.756zm-5.776 2.78V4.348H5.572v7.346c0 1.923 2.162 3.51 5.428 3.51 3.265 0 5.428-1.498 5.428-3.4zm-10.5-.109V4.8h5.145v6.895c0 1.602-1.763 2.605-3.11 2.605-1.347 0-2.035-.863-2.035-2.606z"/>
</svg> 