<svg xmlns="http://www.w3.org/2000/svg" viewBox="0 0 24 24" fill="#FFA116">
  <path d="M13.483 0a1.374 1.374 0 0 0-.961.438L7.116 6.226l-3.854 4.126a1.748 1.748 0 0 0 0 2.252l.337.364 3.786 4.065 5.566 5.777a1.38 1.38 0 0 0 1.848.058l.132-.123 5.368-5.554 3.925-4.064a1.78 1.78 0 0 0 0-2.252L20.49 6.224 14.44.436A1.39 1.39 0 0 0 13.483 0zm-2.866 12.815a1.02 1.02 0 0 1 1.134 1.688l-.109.072-2.562 1.57a1.022 1.022 0 0 1-1.134-1.688l.109-.072 2.562-1.57z"/>
  <path fill="#B3B3B3" d="M5.991 18.798c-1.522 0-2.754-1.25-2.754-2.793 0-1.542 1.232-2.794 2.754-2.794 1.521 0 2.753 1.252 2.753 2.794 0 1.543-1.232 2.793-2.753 2.793zm0-3.835c-.566 0-1.027.467-1.027 1.042 0 .576.46 1.043 1.027 1.043.566 0 1.027-.467 1.027-1.043 0-.575-.46-1.042-1.027-1.042z"/>
  <path fill="#FFA116" d="M17.102 13.211l-4.375 2.715c-.033.021-.08.014-.104-.014l-1.458-1.695c-.427-.496-.389-1.233.077-1.673.428-.403 1.081-.382 1.483.045l.589.687c.024.028.066.028.092.003l2.692-2.33c.455-.393 1.136-.331 1.532.138.416.492.392 1.233-.064 1.693l-.464.431z"/>
</svg> 